name 900006 ik
datacolumns 165
datarows 4
range 0.1833300000000000 0.2083300000000000
cursor 1.0 1.0 0.0
keys m_key
wrap
enforce_loops no
enforce_constraints no
calc_derivatives 0.008333
event_color 1.000000 0.000000 1.000000
endheader

time	calcn_r_tx	calcn_r_ty	calcn_r_tz	calcn_r_r1	calcn_r_r2	calcn_r_r3	calcn_l_tx	calcn_l_ty	calcn_l_tz	calcn_l_r1	calcn_l_r2	calcn_l_r3	pelvis_tz	pelvis_tx	pelvis_ty	pelvis_tilt	pelvis_list	pelvis_rotation	hip_flexion_r	hip_adduction_r	hip_rotation_r	knee_angle_r	ankle_angle_r	subtalar_angle_r	mtp_angle_r	hip_flexion_l	hip_adduction_l	hip_rotation_l	knee_angle_l	ankle_angle_l	subtalar_angle_l	mtp_angle_l	lumbar_extension	lumbar_bending	lumbar_rotation	ground_force_px	ground_force_py	ground_force_pz	ground_force_vx	ground_force_vy	ground_force_vz	ground_force_px	ground_force_py	ground_force_pz	ground_force_vx	ground_force_vy	ground_force_vz	ground_torque_x	ground_torque_y	ground_torque_z	ground_torque_x	ground_torque_y	ground_torque_z	 midhip_px	 midhip_py	 midhip_pz	 hip_r_px	 hip_r_py	 hip_r_pz	 hip_l_px	 hip_l_py	 hip_l_pz	 knee_r_px	 knee_r_py	 knee_r_pz	 knee_l_px	 knee_l_py	 knee_l_pz	 ankle_r_px	 ankle_r_py	 ankle_r_pz	 ankle_l_px	 ankle_l_py	 ankle_l_pz	 midasis_px	 midasis_py	 midasis_pz	 asis_r_px	 asis_r_py	 asis_r_pz	 asis_l_px	 asis_l_py	 asis_l_pz	 psis_r_px	 psis_r_py	 psis_r_pz	 psis_l_px	 psis_l_py	 psis_l_pz	 epicondLat_r_px	 epicondLat_r_py	 epicondLat_r_pz	 epicondLat_l_px	 epicondLat_l_py	 epicondLat_l_pz	 epicondMed_r_px	 epicondMed_r_py	 epicondMed_r_pz	 epicondMed_l_px	 epicondMed_l_py	 epicondMed_l_pz	 malleolusLat_r_px	 malleolusLat_r_py	 malleolusLat_r_pz	 malleolusLat_l_px	 malleolusLat_l_py	 malleolusLat_l_pz	 malleolusMedv_r_px	 malleolusMedv_r_py	 malleolusMedv_r_pz	 malleolusMedv_l_px	 malleolusMedv_l_py	 malleolusMedv_l_pz	 sternalnotch_px	 sternalnotch_py	 sternalnotch_pz	 xyphoidprocess_px	 xyphoidprocess_py	 xyphoidprocess_pz	 neck_px	 neck_py	 neck_pz	 toe_r_px	 toe_r_py	 toe_r_pz	 toe_l_px	 toe_l_py	 toe_l_pz	 thighwand_r_px	 thighwand_r_py	 thighwand_r_pz	 thighwand_l_px	 thighwand_l_py	 thighwand_l_pz	 upperleg1_r_px	 upperleg1_r_py	 upperleg1_r_pz	 upperleg1_l_px	 upperleg1_l_py	 upperleg1_l_pz	 upperleg2_r_px	 upperleg2_r_py	 upperleg2_r_pz	 upperleg2_l_px	 upperleg2_l_py	 upperleg2_l_pz	 shankwand_r_px	 shankwand_r_py	 shankwand_r_pz	 shankwand_l_px	 shankwand_l_py	 shankwand_l_pz	 lowerleg1_r_px	 lowerleg1_r_py	 lowerleg1_r_pz	 lowerleg1_l_px	 lowerleg1_l_py	 lowerleg1_l_pz	 subclavicle_r_px	 subclavicle_r_py	 subclavicle_r_pz	 subclavicle_l_px	 subclavicle_l_py	 subclavicle_l_pz	
      0.1833300000000000	     -2.4868344752640392	      0.1672468972098967	      0.3131626961367053	     -1.5838991537510327	    -10.0236403048208850	    -51.6997284318736090	     -2.1033091178533954	      0.0327001894427066	      0.1985421040875350	     -2.7160908197276203	     -5.3410734513800344	      1.7201758363468773	      0.2655732295806091	     -2.0757077337469312	      0.8295054232368166	      2.8127556216388117	      2.1494179498026633	     -9.1904530404133045	     -6.9144167310685383	     -5.3884057786307533	     -1.6301477412980865	    -40.2934212573804660	     -6.8652628480022875	      0.0000000000000000	      0.0000000000000000	      7.8829178684403258	      4.5380398357119676	     -4.6436010851529934	     -8.3015350390459783	      0.1468599398871197	     -0.0000000000000000	      0.0000000000000000	     -2.8406793996500559	     -0.1691831221628187	      2.1224457331627189	     -1.7194323082732785	      0.0000000000000000	      0.3104290415465745	      0.0000000000000000	     -0.0000000000000000	      0.0000000000000000	     -2.0422583211731302	      0.0000000000000000	      0.2011859523390112	    -32.3097926089924100	    390.3415660985124300	     17.2459054576784360	      0.0000000000000000	      0.0000000000000000	      0.0000000000000000	      0.0000000000000000	      0.2584797550844387	      0.0000000000000000	     -2.1058401343441839	      0.7669693422740199	      0.2510911235277703	     -2.1225896194104212	      0.7618382306298310	      0.3057818484677572	     -2.0890900258206671	      0.7721008295959001	      0.1964006378645904	     -2.2014965486227505	      0.4161813877945907	      0.3364028281888673	     -2.0914464854135559	      0.4229616595072964	      0.2006850353483596	     -2.4352000453162357	      0.1521660887191007	      0.3190888581818191	     -2.0597016443966929	      0.0657951244396864	      0.2062837711502159	     -2.0737665402350287	      0.8389409978425513	      0.2671336826276857	     -2.0913673126504033	      0.8350560481251341	      0.3775706384680287	     -2.0561647744139004	      0.8428250933728675	      0.1566966430698358	     -2.2488848876912559	      0.8662267029769967	      0.2647562951261833	     -2.2442578427042190	      0.8673113833575709	      0.2184351205317162	     -2.1933989600530741	      0.4139058717086295	      0.3953207819581716	     -2.0669074350139991	      0.4175974539966535	      0.1416002767956697	     -2.1699376298069208	      0.4105936925302214	      0.2656266507402293	     -2.0964152457229339	      0.4219194863514219	      0.2608494219340463	     -2.4428620030175523	      0.1567026049035659	      0.3555109901957831	     -2.0661925328824240	      0.0646675399511905	      0.1703826038961836	     -2.4348225843986482	      0.1435446891242866	      0.2865858897201576	     -2.0655906189809716	      0.0664865688405151	      0.2396936335224057	     -2.0865549053635659	      1.1942066824521578	      0.2447864330794198	     -2.0748961184281209	      1.0927791172919898	      0.2404366948936309	     -2.1972064075398792	      1.2620583737188602	      0.2406932319296334	     -2.3941462667846887	      0.0722612317208795	      0.3304154252475735	     -1.9668693300104929	      0.0477775716937120	      0.2026095764064724	     -2.0454890944705393	      0.5409103243350465	      0.3792751074841382	     -1.9768656060306724	      0.5747473440893940	      0.1385990884536629	     -2.1026593754938854	      0.5858305835829377	      0.4035902246828352	     -2.0130615247652672	      0.6179201058292571	      0.1959431298048456	     -2.1171830911368725	      0.5285801048619618	      0.3969974700787980	     -2.0191312945851285	      0.5601506675296625	      0.2062032062342539	     -2.2677319476491742	      0.1590645238543667	      0.3609211374958876	     -2.0712554800698757	      0.1650746088481026	      0.0789327736431967	     -2.3355131249474654	      0.1956189442953135	      0.3362015599892324	     -2.0724831622579813	      0.1583336197563136	      0.1584872949156231	     -2.0904132722632052	      1.1927759411425682	      0.3012623615289006	     -2.0778082853612299	      1.1961258372287435	      0.1951087175427133	
      0.1916633333333333	     -2.4787661549194357	      0.1716446935014659	      0.3123061512035742	     -1.7751716781032367	    -10.5230335652694770	    -52.8556438112154650	     -2.1029786889826032	      0.0330134354837219	      0.1981691126710259	     -2.7718643697016518	     -5.4942548476555739	      1.3871412220956003	      0.2646489816482666	     -2.0691980910141563	      0.8302117013162433	      2.8710861004799222	      2.0547575878050921	     -9.3143516194170868	     -6.2290130757944366	     -5.5814669611458170	     -1.9389831135343683	    -41.7598465154360310	     -7.2907104359719197	      0.0000000000000000	      0.0000000000000000	      7.4780071610549781	      4.5739747474224375	     -4.6503379748012295	     -8.6218161625485710	      0.4961795203006337	      0.0000000000000000	      0.0000000000000000	     -3.2244249022171121	     -0.0472902572672056	      2.2132190676935224	     -1.7165630273801602	      0.0000000000000000	      0.3108315065863578	     -0.0000000000000000	      0.0000000000000000	     -0.0000000000000000	     -2.0388962224624949	      0.0000000000000000	      0.2011929424768577	    -32.8821036901381590	    401.7526826296058300	     16.3237983697266560	      0.0000000000000000	     -0.0000000000000000	      0.0000000000000000	      0.0000000000000000	      0.3793774473566594	      0.0000000000000000	     -2.0996142448114639	      0.7670475048081911	      0.2501868003371428	     -2.1164342410581196	      0.7619540061563856	      0.3048591495285841	     -2.0827939064834395	      0.7721411408515911	      0.1955141288113445	     -2.1916018641358188	      0.4158929255101618	      0.3365322136665592	     -2.0874891472989390	      0.4237983688505125	      0.2003992192828658	     -2.4268679167587179	      0.1552504277784102	      0.3180946730527677	     -2.0592522371007336	      0.0657503558438741	      0.2063894528823541	     -2.0675773335768053	      0.8391216253288923	      0.2662051453419478	     -2.0852947262969184	      0.8353467103293084	      0.3765282491601070	     -2.0498593030259595	      0.8428958013326340	      0.1558820676638608	     -2.2428809623244281	      0.8661299381459725	      0.2638538401724467	     -2.2378967456147216	      0.8670544542938541	      0.2172047211829278	     -2.1827912570108063	      0.4136472009145235	      0.3954586443945810	     -2.0625151214505695	      0.4176405326799336	      0.1412767607907120	     -2.1593572652152924	      0.4100089635269031	      0.2661440468766461	     -2.0915402879645923	      0.4229247480279081	      0.2612190564146159	     -2.4349577223878232	      0.1602071989001941	      0.3543795896745643	     -2.0658321579650623	      0.0646539058744555	      0.1705039872809598	     -2.4254409466396800	      0.1478730859561148	      0.2852885734843788	     -2.0649538172062751	      0.0663893125754146	      0.2398214061951244	     -2.0800522049265462	      1.1942957027785657	      0.2437492314942251	     -2.0684063570426097	      1.0928711583278361	      0.2392988935807664	     -2.1908844819584536	      1.2623153071819082	      0.2393535687893668	     -2.3878135815675563	      0.0744912579755515	      0.3316199710822604	     -1.9667200030352820	      0.0473772481731202	      0.2030246578495534	     -2.0367114386936631	      0.5421390103888703	      0.3801567193824914	     -1.9714473206613423	      0.5744537447427727	      0.1378397081831951	     -2.0942427643680772	      0.5861791624954160	      0.4035740231302230	     -2.0070318900926538	      0.6182765849505708	      0.1955539203540851	     -2.1082836278227721	      0.5293324205673849	      0.3972590179854449	     -2.0135168167752773	      0.5604168688137617	      0.2059387431531990	     -2.2597395803447333	      0.1599248043605761	      0.3622713437545750	     -2.0699465223064180	      0.1649602663055712	      0.0789898046428105	     -2.3254037333140296	      0.1987084378229367	      0.3364250854791314	     -2.0709698634613827	      0.1582326708742627	      0.1586376476590852	     -2.0840724686685932	      1.1927884600670016	      0.3003695507553404	     -2.0711609180240478	      1.1962815111680922	      0.1939399083286312	
      0.1999966666666667	     -2.4700713848856153	      0.1751723679216429	      0.3116754721075621	     -1.7651053577523252	    -10.6044994021235560	    -53.5482088891397150	     -2.1031282152041397	      0.0334675248238947	      0.1991495543492194	     -2.9377963714621500	     -5.3818723010097393	      0.9143981273316003	      0.2637554317621736	     -2.0633522942229390	      0.8308977876556156	      2.9918386490211883	      1.9641661426775900	     -9.2175729291399211	     -5.5380325589202766	     -5.5326121790101306	     -2.0190135880778728	    -43.2195890399266600	     -7.3591112167858093	      0.0000000000000000	      0.0000000000000000	      7.0389894251674265	      4.6968263800119274	     -4.6818794341404821	     -8.9094240864235914	      0.6387233080150827	      0.0000000000000000	      0.0000000000000000	     -3.2827849748578410	     -0.0130724936137937	      2.1579823908986375	     -1.7137317152150955	      0.0000000000000000	      0.3112464419749366	      0.0000000000000000	     -0.0000000000000000	      0.0000000000000000	     -2.0351208100073088	      0.0000000000000000	      0.2011169495987103	    -33.4483131075460140	    413.1339976937279100	     15.7283682205983180	      0.0000000000000000	      0.0000000000000000	      0.0000000000000000	      0.0000000000000000	      0.5076169928365609	      0.0000000000000000	     -2.0933610500476711	      0.7670689818656487	      0.2493711784544042	     -2.1102409181507942	      0.7620033532686726	      0.3040276091119898	     -2.0764810844346737	      0.7721345947503114	      0.1947141653945637	     -2.1814613688084359	      0.4153253766562785	      0.3366210846109098	     -2.0828646217698426	      0.4245734324684831	      0.2001408950291854	     -2.4181552439325706	      0.1580281127911908	      0.3171234240342672	     -2.0588592064529414	      0.0657137598742012	      0.2064823676833353	     -2.0614617094528747	      0.8392756766206998	      0.2653506479960107	     -2.0792965272460071	      0.8356035017843287	      0.3755756367758030	     -2.0436265476074302	      0.8429472528486480	      0.1551257642702582	     -2.2368254721532361	      0.8659035221546477	      0.2628984748854916	     -2.2316623628331729	      0.8668178438932722	      0.2160744097034435	     -2.1721489528656637	      0.4134386178270632	      0.3955498131051655	     -2.0581597366061462	      0.4176579247949971	      0.1409943267384844	     -2.1487334148737909	      0.4090272290849246	      0.2671900672463451	     -2.0861401838085150	      0.4232975823474874	      0.2609633016525865	     -2.4266942348680307	      0.1634358341061268	      0.3532441706963188	     -2.0655043019796184	      0.0646527082129683	      0.1706080566918730	     -2.4158872927127768	      0.1513904801711243	      0.2841480545089828	     -2.0643769707463298	      0.0663641859793213	      0.2399279879918273	     -2.0737209997301922	      1.1943913273460496	      0.2428245806358014	     -2.0621063698723225	      1.0929644488393453	      0.2383509641499712	     -2.1846555415016438	      1.2625563910456488	      0.2380657988768798	     -2.3808228550784047	      0.0768065191638325	      0.3330759571121207	     -1.9665960751249614	      0.0470254670508820	      0.2033907873309088	     -2.0279511263878129	      0.5434503270478172	      0.3808409270419587	     -1.9660831011555950	      0.5741979073979568	      0.1372984288019807	     -2.0858364423395499	      0.5867034666951745	      0.4034465912950444	     -2.0012375252689858	      0.6185168393841287	      0.1954299612157172	     -2.0993231271437338	      0.5299759453683406	      0.3975687560445768	     -2.0078908020143191	      0.5606570053333803	      0.2056766228531493	     -2.2514743471796193	      0.1608208294179298	      0.3637440441775612	     -2.0686314443811900	      0.1648580208043396	      0.0790138204354142	     -2.3154927330725434	      0.2012504790703838	      0.3366579403731094	     -2.0694812353164029	      0.1581671316548715	      0.1587069689563529	     -2.0779257011814192	      1.1928499009189950	      0.2995638134825313	     -2.0646654082373068	      1.1964054244730866	      0.1929108462579469	
      0.2083300000000000	     -2.4612772732443546	      0.1782009827262034	      0.3110324132791118	     -1.9205371066843684	    -10.9486306034357440	    -54.2359297353715490	     -2.1029516556688974	      0.0334586314508024	      0.1994725142556673	     -3.0308348906200346	     -5.5029331374490402	      0.7949944069987737	      0.2627506291959173	     -2.0571186323481605	      0.8312874849639895	      3.0542049081338050	      1.8675552957892951	     -9.2571272365318809	     -4.8484928321643332	     -5.6457833591681306	     -2.2407335081254582	    -44.5169223250723080	     -7.4966929199693624	     -0.0000000000000000	      0.0000000000000000	      6.6345948096559724	      4.7869044051838552	     -4.6799623086833151	     -9.2142704568042451	      1.1859668652119701	      0.0000000000000000	      0.0000000000000000	     -3.4710235303828600	      0.0465720260675916	      1.9998082807419781	     -1.7109505546019161	      0.0000000000000000	      0.3116742049546222	     -0.0000000000000000	      0.0000000000000000	     -0.0000000000000000	     -2.0312115365422070	      0.0000000000000000	      0.2009512691420830	    -34.0086905203427110	    422.3239842399744400	     15.8039236893817240	      0.0000000000000000	     -0.0000000000000000	      0.0000000000000000	      0.0000000000000000	      0.6203944162151676	      0.0000000000000000	     -2.0870911542772581	      0.7670413980643115	      0.2486427211861258	     -2.1040219311551667	      0.7619948736453701	      0.3032852448753283	     -2.0701604953476451	      0.7720878136474050	      0.1939996175354344	     -2.1710553494391824	      0.4144983582193346	      0.3366717543513005	     -2.0776366352667734	      0.4252816203675500	      0.1999135351989667	     -2.4090573526593162	      0.1604904882893161	      0.3161810177708178	     -2.0585202355054291	      0.0656850883509040	      0.2065624206767754	     -2.0554200516714163	      0.8394059910654782	      0.2645704235516436	     -2.0733743166608023	      0.8358293931892475	      0.3747141108634355	     -2.0374656792323766	      0.8429821562832387	      0.1544268844125764	     -2.2307337254751323	      0.8655650719049540	      0.2619000232758682	     -2.2255528325307554	      0.8666029948548517	      0.2150433369513075	     -2.1614719816972512	      0.4132810715851043	      0.3955955176775298	     -2.0538409441904228	      0.4176502479431932	      0.1407548759597531	     -2.1380326377954346	      0.4077066960891920	      0.2686788172456189	     -2.0802946365423316	      0.4230803721889930	      0.2601248103520849	     -2.4180667414673986	      0.1663792562220824	      0.3521104722796156	     -2.0652066648974663	      0.0646638427708121	      0.1706947136777627	     -2.4061342509878330	      0.1541345060323086	      0.2831592962920801	     -2.0638595494361072	      0.0664083106494679	      0.2400134839913109	     -2.0675583864321641	      1.1944922809546434	      0.2420116327765201	     -2.0559901897373152	      1.0930581423917098	      0.2375903406119716	     -2.1785209320603149	      1.2627788925990933	      0.2368251997046856	     -2.3731733679029992	      0.0791871044487847	      0.3347597703400098	     -1.9664966447772487	      0.0467217929889697	      0.2037062226375719	     -2.0192008826823500	      0.5448434412184443	      0.3813254783856043	     -1.9607689192379645	      0.5739773951230419	      0.1369662837179203	     -2.0774415525958916	      0.5873881780258987	      0.4032160898120299	     -1.9956686582918541	      0.6186365158932127	      0.1955556947352070	     -2.0902925741569161	      0.5305245650841846	      0.3979085792252352	     -2.0022705179637863	      0.5608537389756659	      0.2054229387592303	     -2.2429350951899627	      0.1617499724418769	      0.3653404475876360	     -2.0673074887240741	      0.1647682714042629	      0.0790053856017438	     -2.3057297911978818	      0.2032743443362199	      0.3369125467591291	     -2.0680166067575363	      0.1581354026766704	      0.1586980833158735	     -2.0719684630060660	      1.1929580682840650	      0.2988434891561348	     -2.0583202951358217	      1.1964972807857803	      0.1920213759802376	
